<?xml version="1.0" encoding="utf-8"?>
<!-- Generator: Adobe Illustrator 15.0.2, SVG Export Plug-In . SVG Version: 6.00 Build 0)  -->
<!DOCTYPE svg PUBLIC "-//W3C//DTD SVG 1.1//EN" "http://www.w3.org/Graphics/SVG/1.1/DTD/svg11.dtd">
<svg version="1.1" xmlns="http://www.w3.org/2000/svg" xmlns:xlink="http://www.w3.org/1999/xlink" x="0px" y="0px" width="585px"
	 height="307px" viewBox="0 0 585 307" enable-background="new 0 0 585 307" xml:space="preserve">
<g id="Layer_1">
	<g>
		<path fill="#CCCCCC" d="M585,31H164V7.558C164,4.066,166.745,0,170.273,0h408.339C582.141,0,585,4.066,585,7.558V31z"/>
		<circle opacity="0.71" fill="#E74C3C" cx="180.439" cy="17.044" r="5.956"/>
		<circle opacity="0.71" fill="#F1C40F" cx="199.932" cy="17.044" r="5.956"/>
		<circle opacity="0.71" fill="#2ECC71" cx="219.425" cy="17.044" r="5.956"/>
		<path fill="#E6E6E6" d="M375.109,13.128c-0.5-1.504-1.699-2.128-3.795-2.128H256.216c-2.095,0-3.293,0.678-3.794,2.128
			l-5.059,15.828c-0.435,1.263-2.53,2.044-2.53,2.044h137.864c0,0-2.095-0.663-2.53-2.044L375.109,13.128z"/>
		<path fill="#F2F2F2" d="M585,299.372c0,4.213-3.172,7.628-7.086,7.628H170.971c-3.913,0-6.971-3.415-6.971-7.628V61h421V299.372z"
			/>
		<rect x="164" y="31" fill="#E6E6E6" width="421" height="30"/>
	</g>
</g>
<g id="Calque_2">
	<g>
		<g>
			<path id="cursor-5-icon" fill="#4D4D4D" d="M0,41.767v28.227l8.526-10.892H22.18L0,41.767z"/>
			<g>
				<path id="blank-file-icon_1_" fill="#4D4D4D" d="M22.95,6.905h-6.885V0.021L22.95,6.905z M13.668,9.302V0H0v28.227h22.977V9.302
					H13.668z"/>
			</g>
		</g>
		<g>
			<g>
				<polygon fill="none" points="21.707,128.778 19.768,128.778 19.768,131.289 17.257,131.289 17.257,133.228 19.768,133.228 
					19.768,135.738 21.707,135.738 21.707,133.228 24.217,133.228 24.217,131.289 21.707,131.289 				"/>
				<g>
					<path fill="#4D4D4D" d="M20.652,123.976c0.808,0,1.588,0.117,2.324,0.334v-5.229h-9.308v-9.303H0v28.228h14.888
						c-1.502-1.486-2.434-3.548-2.434-5.831C12.454,127.643,16.122,123.976,20.652,123.976z"/>
					<polygon fill="#4D4D4D" points="16.065,109.799 16.065,116.683 22.95,116.683 					"/>
					<path fill="#8EBD00" d="M20.653,126.374c-3.204,0-5.8,2.597-5.8,5.8s2.597,5.801,5.8,5.801c3.203,0,5.8-2.597,5.8-5.801
						C26.453,128.971,23.856,126.374,20.653,126.374z M24.217,133.228h-2.511v2.51h-1.939v-2.51h-2.511v-1.939h2.511v-2.51h1.939
						v2.51h2.511V133.228z"/>
				</g>
			</g>
			<path id="cursor-5-icon_1_" fill="#4D4D4D" d="M0,151.545v28.227l8.526-10.892H22.18L0,151.545z"/>
		</g>
		<g>
			<path fill="#CCCCCC" d="M127,239c0,1.657-1.343,3-3,3H3c-1.657,0-3-1.343-3-3v-16c0-1.657,1.343-3,3-3h121c1.657,0,3,1.343,3,3
				V239z"/>
			<g>
				<path fill="#4D4D4D" d="M27.146,235.749l3.656-9.395h1.955l3.656,9.395h-2.006l-0.978-2.507h-3.885l-0.978,2.507H27.146z
					 M30.028,231.991h2.92l-1.46-3.745L30.028,231.991z"/>
				<path fill="#4D4D4D" d="M42.133,235.749v-1.313c-0.482,0.981-1.242,1.473-2.279,1.473c-0.838,0-1.496-0.307-1.974-0.921
					s-0.717-1.458-0.717-2.532c0-1.168,0.27-2.1,0.809-2.793c0.54-0.694,1.265-1.041,2.174-1.041c0.728,0,1.39,0.287,1.987,0.863
					v-3.758h1.885v10.022H42.133z M42.133,230.602c-0.453-0.508-0.938-0.762-1.454-0.762c-0.461,0-0.83,0.222-1.104,0.666
					s-0.413,1.041-0.413,1.79c0,1.427,0.457,2.14,1.371,2.14c0.559,0,1.092-0.357,1.6-1.073V230.602z"/>
				<path fill="#4D4D4D" d="M50.747,235.749v-1.313c-0.482,0.981-1.242,1.473-2.279,1.473c-0.838,0-1.496-0.307-1.974-0.921
					s-0.717-1.458-0.717-2.532c0-1.168,0.27-2.1,0.809-2.793c0.54-0.694,1.265-1.041,2.174-1.041c0.728,0,1.39,0.287,1.987,0.863
					v-3.758h1.885v10.022H50.747z M50.747,230.602c-0.453-0.508-0.938-0.762-1.454-0.762c-0.461,0-0.83,0.222-1.104,0.666
					s-0.413,1.041-0.413,1.79c0,1.427,0.457,2.14,1.371,2.14c0.559,0,1.092-0.357,1.6-1.073V230.602z"/>
				<path fill="#4D4D4D" d="M62.852,235.711c-0.449,0.131-0.802,0.197-1.06,0.197c-1.629,0-2.444-0.762-2.444-2.285v-3.67h-0.781
					v-1.174h0.781v-1.174l1.879-0.217v1.391h1.492v1.174h-1.492v3.422c0,0.855,0.349,1.282,1.047,1.282
					c0.161,0,0.354-0.03,0.578-0.089V235.711z"/>
				<path fill="#4D4D4D" d="M67.454,235.908c-1.087,0-1.952-0.33-2.593-0.987c-0.642-0.658-0.962-1.544-0.962-2.657
					c0-1.125,0.323-2.014,0.968-2.666c0.646-0.651,1.522-0.977,2.631-0.977c1.113,0,1.992,0.325,2.637,0.977
					c0.646,0.652,0.968,1.537,0.968,2.654c0,1.143-0.324,2.037-0.971,2.685S68.592,235.908,67.454,235.908z M67.486,234.733
					c1.079,0,1.619-0.827,1.619-2.481c0-0.758-0.143-1.357-0.429-1.797c-0.285-0.439-0.678-0.66-1.177-0.66
					c-0.495,0-0.885,0.221-1.171,0.66c-0.285,0.439-0.428,1.043-0.428,1.809c0,0.758,0.142,1.359,0.425,1.803
					C66.608,234.512,66.995,234.733,67.486,234.733z"/>
				<path fill="#4D4D4D" d="M77.115,235.749v-9.395h5.91v1.288H79.07v2.857h3.25v1.295h-3.25v3.954H77.115z"/>
				<path fill="#4D4D4D" d="M90.255,235.514c-0.893,0.263-1.739,0.395-2.539,0.395c-1.164,0-2.082-0.33-2.755-0.99
					s-1.009-1.562-1.009-2.705c0-1.078,0.308-1.947,0.924-2.605c0.615-0.658,1.429-0.986,2.44-0.986c1.02,0,1.765,0.321,2.234,0.965
					c0.47,0.643,0.705,1.66,0.705,3.053h-4.323c0.127,1.328,0.857,1.993,2.19,1.993c0.63,0,1.341-0.146,2.133-0.438V235.514z
					 M85.907,231.578h2.501c0-1.188-0.383-1.783-1.149-1.783C86.48,229.795,86.029,230.39,85.907,231.578z"/>
				<path fill="#4D4D4D" d="M97.872,235.514c-0.893,0.263-1.739,0.395-2.539,0.395c-1.164,0-2.082-0.33-2.755-0.99
					s-1.009-1.562-1.009-2.705c0-1.078,0.308-1.947,0.924-2.605c0.615-0.658,1.429-0.986,2.44-0.986c1.02,0,1.765,0.321,2.234,0.965
					c0.47,0.643,0.705,1.66,0.705,3.053h-4.323c0.127,1.328,0.857,1.993,2.19,1.993c0.63,0,1.341-0.146,2.133-0.438V235.514z
					 M93.524,231.578h2.501c0-1.188-0.383-1.783-1.149-1.783C94.097,229.795,93.646,230.39,93.524,231.578z"/>
				<path fill="#4D4D4D" d="M104.201,235.749v-1.313c-0.482,0.981-1.242,1.473-2.279,1.473c-0.838,0-1.496-0.307-1.974-0.921
					s-0.717-1.458-0.717-2.532c0-1.168,0.27-2.1,0.809-2.793c0.54-0.694,1.265-1.041,2.174-1.041c0.728,0,1.39,0.287,1.987,0.863
					v-3.758h1.885v10.022H104.201z M104.201,230.602c-0.453-0.508-0.938-0.762-1.454-0.762c-0.461,0-0.83,0.222-1.104,0.666
					s-0.413,1.041-0.413,1.79c0,1.427,0.457,2.14,1.371,2.14c0.559,0,1.092-0.357,1.6-1.073V230.602z"/>
				<path fill="#4D4D4D" d="M108.428,235.749v-10.022h1.879v10.022H108.428z"/>
				<path fill="#4D4D4D" d="M112.682,238.256l1.58-2.507l-2.584-6.97h2.02l1.727,4.659l2.05-4.659h1.429l-4.305,9.477H112.682z"/>
			</g>
			<g>
				<path id="blank-file-icon_2_" fill="#4D4D4D" d="M18.877,227.764h-2.88v-2.881L18.877,227.764z M14.993,228.767v-3.892H9.274
					v11.811h9.614v-7.919H14.993z"/>
			</g>
		</g>
	</g>
</g>
</svg>
